<svg xmlns="http://www.w3.org/2000/svg" xmlns:xlink="http://www.w3.org/1999/xlink" width="100" height="100" version="1.1" viewBox="0 0 100 100"><title>happines</title><desc>Created with Sketch.</desc><defs><linearGradient id="linearGradient-1" x1="52.216%" x2="60.755%" y1="0%" y2="100%"><stop offset="0%" stop-color="#FFB751"/><stop offset="51.026%" stop-color="#FFB751"/><stop offset="100%" stop-color="#FFB751"/></linearGradient><linearGradient id="linearGradient-2" x1="50%" x2="50%" y1="0%" y2="100%"><stop offset="0%" stop-color="#FFD764"/><stop offset="50.91%" stop-color="#FFE280"/><stop offset="100%" stop-color="#FFD764"/></linearGradient></defs><g id="Page-1" fill="none" fill-rule="evenodd" stroke="none" stroke-width="1"><g id="happines"><g id="Group" transform="translate(2.000000, 2.000000)"><circle id="Oval" cx="48.5" cy="48.5" r="48.5" fill="url(#linearGradient-1)"/><ellipse id="Oval-Copy" cx="46" cy="48.5" fill="url(#linearGradient-2)" rx="46" ry="48.5"/><path id="Path-2" stroke="#FF804C" stroke-linecap="round" stroke-linejoin="round" stroke-width="4" d="M32,56.8395423 C47.724896,64.112587 59.724896,58.8327396 68,41"/><circle id="Oval-2" cx="17" cy="62" r="7" fill="#FF5440"/><circle id="Oval-2" cx="16" cy="62" r="6" fill="#FF804C"/><circle id="Oval-3" cx="78" cy="36" r="7" fill="#FF5440"/><circle id="Oval-3" cx="77" cy="36" r="6" fill="#FF804C"/><path id="Path-4" stroke="#3D140F" stroke-linecap="round" stroke-linejoin="round" stroke-width="3" d="M21.4302556,46 C20.4715175,42.0021423 21.1150457,39.243037 23.3608401,37.722684 C23.3087116,37.7197826 29.9491541,34.4450274 32,41.861342"/><path id="Path-4-Copy" stroke="#3D140F" stroke-linecap="round" stroke-linejoin="round" stroke-width="3" d="M56.4302556,32 C55.4715175,28.0021423 56.1150457,25.243037 58.3608401,23.722684 C58.3087116,23.7197826 64.9491541,20.4450274 67,27.861342"/><path id="Path-5" stroke="#FCB450" stroke-linecap="round" stroke-linejoin="round" stroke-width="3" d="M56.0661886,64.1046635 C58.0637239,62.7713302 59.0637239,62.1038409 59.0661886,62.1021958" transform="translate(57.566189, 63.103430) rotate(4.000000) translate(-57.566189, -63.103430)"/></g></g></g></svg>