<svg xmlns="http://www.w3.org/2000/svg" xmlns:xlink="http://www.w3.org/1999/xlink" width="14" height="16" version="1.1" viewBox="0 0 14 16"><title>Page 1</title><desc>Created with Sketch.</desc><g id="Samples" fill="none" fill-rule="evenodd" stroke="none" stroke-width="1"><g id="Explore-Card" transform="translate(-677.000000, -396.000000)"><g id="Page-1"><g transform="translate(604.000000, 392.000000) translate(73.000000, 4.000000)"><path id="Fill-1" fill="#757575" d="M5.0004,7.9996 C5.0004,9.3806 3.8804,10.4996 2.5004,10.4996 C1.1194,10.4996 0.0004,9.3806 0.0004,7.9996 C0.0004,6.6196 1.1194,5.4996 2.5004,5.4996 C3.8804,5.4996 5.0004,6.6196 5.0004,7.9996"/><path id="Fill-3" fill="#757575" d="M14.0004,13.4996 C14.0004,14.8806 12.8804,15.9996 11.5004,15.9996 C10.1194,15.9996 9.0004,14.8806 9.0004,13.4996 C9.0004,12.1196 10.1194,10.9996 11.5004,10.9996 C12.8804,10.9996 14.0004,12.1196 14.0004,13.4996"/><path id="Fill-6" fill="#757575" d="M14.0004,2.4996 C14.0004,3.8806 12.8804,4.9996 11.5004,4.9996 C10.1194,4.9996 9.0004,3.8806 9.0004,2.4996 C9.0004,1.1196 10.1194,-0.0004 11.5004,-0.0004 C12.8804,-0.0004 14.0004,1.1196 14.0004,2.4996"/><polyline id="Stroke-9" stroke="#757575" points="11.5 2.5 2.5 8 11.5 13.5"/></g></g></g></g></svg>