<svg xmlns="http://www.w3.org/2000/svg" xmlns:xlink="http://www.w3.org/1999/xlink" id="Layer_1" x="0" y="0" version="1.1" viewBox="0 0 32 32" style="enable-background:new 0 0 32 32" xml:space="preserve"><style type="text/css">.st0{fill:#008cff}.st2{opacity:.1}.st2,.st3,.st4{fill:#008cff}.st3{opacity:.3}.st4{opacity:.5}</style><g><circle cx="16" cy="16" r="7" class="st0"/><path d="M16,2c4,0,7.5,1.7,10.1,4.3l1.4-1.5C24.5,1.9,20.5,0,16,0C11.6,0,7.6,1.8,4.7,4.7l1.4,1.4C8.6,3.6,12.1,2,16,2 z" class="st2"/><path d="M25.4,7C23,4.6,19.7,3,16,3c-3.6,0-6.8,1.5-9.2,3.8l1.4,1.4C10.2,6.2,13,5,16,5c3.2,0,6,1.3,8,3.5L25.4,7z" class="st3"/><path d="M8.9,8.9l1.4,1.4C11.8,8.9,13.8,8,16,8c2.4,0,4.5,1,6,2.7l1.4-1.5C21.5,7.2,18.9,6,16,6 C13.2,6,10.7,7.1,8.9,8.9z" class="st4"/><path d="M31.6,12.4L29.7,13c0.2,1,0.3,2,0.3,3c0,6.4-4.4,11.9-10.3,13.5l0.5,1.9C27,29.6,32,23.4,32,16 C32,14.8,31.8,13.6,31.6,12.4z" class="st2"/><path d="M2,16c0-1.1,0.2-2.2,0.4-3.3l-1.9-0.6C0.2,13.4,0,14.7,0,16c0,7.4,5,13.6,11.8,15.4l0.5-1.9 C6.4,27.9,2,22.4,2,16z" class="st2"/><path d="M29,16c0-0.9-0.1-1.9-0.3-2.7l-1.9,0.6c0.1,0.7,0.2,1.4,0.2,2.2c0,5-3.4,9.3-8,10.6l0.5,1.9 C24.9,27,29,22,29,16z" class="st3"/><path d="M5,16c0-0.8,0.1-1.7,0.3-2.4L3.4,13C3.1,14,3,15,3,16c0,6,4.1,11,9.6,12.5l0.5-1.9C8.4,25.3,5,21,5,16z" class="st3"/><path d="M26,16c0-0.6-0.1-1.3-0.2-1.9l-1.9,0.6C24,15.1,24,15.6,24,16c0,3.6-2.4,6.7-5.7,7.7l0.5,1.9 C22.9,24.4,26,20.6,26,16z" class="st4"/><path d="M8,16c0-0.5,0.1-1.1,0.2-1.6l-1.9-0.6C6.1,14.5,6,15.3,6,16c0,4.6,3.1,8.4,7.3,9.6l0.5-1.9 C10.4,22.7,8,19.6,8,16z" class="st4"/></g></svg>