<svg xmlns="http://www.w3.org/2000/svg" xmlns:xlink="http://www.w3.org/1999/xlink" id="Layer_1" x="0" y="0" version="1.1" viewBox="0 0 75 75" style="enable-background:new 0 0 75 75" xml:space="preserve"><style type="text/css">.st2{fill:#606060}.st177{font-family:&apos;Roboto-Medium&apos;}.st178{font-size:12.5832px}</style><g><path d="M42.8,10.4c10.6,2.1,19,10.2,21.5,20.7h2.2C64,19.5,54.6,10.4,42.8,8.3V10.4z" class="st2"/><path d="M10.8,31.1c2.5-10.4,10.9-18.6,21.5-20.7V8.3C20.5,10.4,11.2,19.5,8.6,31.1H10.8z" class="st2"/><path d="M32.3,64.4c-10.6-2.1-19-10.2-21.5-20.7H8.6c2.5,11.6,11.9,20.7,23.6,22.8V64.4z" class="st2"/><path d="M64.3,43.8c-2.5,10.4-10.9,18.6-21.5,20.7v2.1C54.6,64.5,64,55.4,66.5,43.8H64.3z" class="st2"/></g><text class="st2 st177 st178" transform="matrix(1 0 0 1 33.7949 12.5674)">N</text><text class="st2 st177 st178" transform="matrix(1 0 0 1 4.749 41.1523)">W</text><text class="st2 st177 st178" transform="matrix(1 0 0 1 62.1631 41.1523)">E</text><text class="st2 st177 st178" transform="matrix(1 0 0 1 34.2832 70.6455)">S</text><path d="M42.3,37.4l-4.2-20.6l-4.2,20.6l4.2,20.6L42.3,37.4z M35.2,38.5l5.9,0l-2.9,14.3L35.2,38.5z" class="st2"/></svg>