<svg xmlns="http://www.w3.org/2000/svg" xmlns:xlink="http://www.w3.org/1999/xlink" width="25" height="25" version="1.1" viewBox="0 0 25 25"><title>Rainy@2x</title><desc>Created with Sketch.</desc><g id="Weather" fill="none" fill-rule="evenodd" stroke="none" stroke-width="1"><g id="Rainy" fill="#7C9CB2"><g id="Group" transform="translate(0.000000, 2.000000)"><path id="Fill-3" d="M22.4346965,7.45756462 C22.4346965,5.04763944 20.4810929,3.09418454 18.0713164,3.09418454 C17.2196351,3.09418454 16.4275773,3.34189773 15.7559564,3.76387253 C14.8474765,1.55586483 12.6772354,0 10.1415207,0 C6.78847137,0 4.07046593,2.71815414 4.07046593,6.07105473 C4.07046593,6.32456672 4.09098479,6.57272598 4.12116833,6.81806016 C1.82246131,6.81553248 0,8.63799379 0,10.8859984 C0,13.134003 1.82246131,14.9564643 4.07046593,14.9564643 L22.1132344,14.9564643 C23.7076092,14.9564643 25,13.6640736 25,12.0696987 C25,10.4754725 23.7076092,9.18293307 22.1132344,9.18293307 C22.3062306,8.65628234 22.4346965,8.07208959 22.4346965,7.45756462 Z" transform="translate(12.500000, 7.478232) scale(-1, 1) translate(-12.500000, -7.478232)"/><rect id="Rectangle" width="1" height="3" x="5" y="16" rx=".5"/><rect id="Rectangle-Copy" width="1" height="3" x="8" y="18" rx=".5"/><rect id="Rectangle-Copy-2" width="1" height="3" x="12" y="17" rx=".5"/><rect id="Rectangle-Copy-3" width="1" height="3" x="16" y="16" rx=".5"/><rect id="Rectangle-Copy-4" width="1" height="3" x="20" y="18" rx=".5"/></g></g></g></svg>