<svg xmlns="http://www.w3.org/2000/svg" xmlns:xlink="http://www.w3.org/1999/xlink" id="Layer_1" x="0" y="0" version="1.1" viewBox="0 0 25 25" style="enable-background:new 0 0 25 25" xml:space="preserve"><style type="text/css"/><path d="M24.7,12l-5.5-2c-0.1,0-0.2,0-0.3,0l-2.8,1V6.5c0-0.2-0.1-0.4-0.3-0.5l-7-3C8.6,3,8.4,3,8.3,3l-7,3C1.1,6.1,1,6.3,1,6.5v17	C1,23.8,1.2,24,1.5,24H2h7h4.5H14h1.5H19h5.5c0.3,0,0.5-0.2,0.5-0.5v-11C25,12.3,24.9,12.1,24.7,12z M9,4.3l6,2.6v4.6L13.3,12	c-0.2,0.1-0.3,0.3-0.3,0.5V23H9V4.3z M24,23h-5V11l5,1.8V23z"/></svg>