<svg xmlns="http://www.w3.org/2000/svg" xmlns:xlink="http://www.w3.org/1999/xlink" id="Layer_1" x="0" y="0" version="1.1" viewBox="0 0 25 25" style="enable-background:new 0 0 25 25" xml:space="preserve"><style type="text/css"/><g><path d="M17,19c-0.6,0-1,0.4-1,1v1.7c0,0.2-0.1,0.3-0.2,0.3H8V6h7.8C15.9,6,16,6.1,16,6.3V8c0,0.6,0.4,1,1,1s1-0.4,1-1V6.3 C18,5,17,4,15.8,4H4.2C3,4,2,5,2,6.3v15.3C2,23,3,24,4.2,24h11.5c1.2,0,2.2-1,2.2-2.3V20C18,19.4,17.6,19,17,19z"/><path d="M20.3,13H15v-2c0-0.4-0.5-0.7-0.8-0.4l-3.3,2.6c0,0,0,0,0,0l-0.4,0.3c-0.3,0.2-0.3,0.6,0,0.8l0.4,0.3c0,0,0,0,0,0l3.3,2.6 c0.3,0.3,0.8,0,0.8-0.4v-2h5.3c0.6,0,1-0.4,1-1S20.9,13,20.3,13z"/></g></svg>