<svg xmlns="http://www.w3.org/2000/svg" xmlns:xlink="http://www.w3.org/1999/xlink" id="Layer_1" x="0" y="0" version="1.1" viewBox="0 0 32 32" style="enable-background:new 0 0 32 32" xml:space="preserve"><style type="text/css">.st3{fill:#91d4fe}.st4{fill:#63a7d3}</style><g><path d="M29.5,27.5h-27c-1.1,0-2-0.9-2-2v-19c0-1.1,0.9-2,2-2h10.4l3.5,3.1h13.2c1.1,0,2,0.9,2,2v15.9 C31.5,26.6,30.6,27.5,29.5,27.5z" class="st3"/><path d="M29.5,28h-27C1.1,28,0,26.9,0,25.5v-19C0,5.1,1.1,4,2.5,4h10.6l3.5,3.1h13c1.4,0,2.5,1.1,2.5,2.5v15.9 C32,26.9,30.9,28,29.5,28z M2.5,5C1.7,5,1,5.7,1,6.5v19C1,26.3,1.7,27,2.5,27h27c0.8,0,1.5-0.7,1.5-1.5V9.6c0-0.8-0.7-1.5-1.5-1.5 H16.2L12.7,5H2.5z" class="st4"/></g></svg>