<svg xmlns="http://www.w3.org/2000/svg" xmlns:xlink="http://www.w3.org/1999/xlink" id="Layer_1" x="0" y="0" version="1.1" viewBox="0 0 32 32" style="enable-background:new 0 0 32 32" xml:space="preserve"><style type="text/css">.st6{fill:#fff}.st32{fill:#f4a1ef}.st33{fill:#dd87dd}.st34{fill:#f9cbf6}</style><g><path d="M21.5,0.5h-17c-1.1,0-2,0.9-2,2v27c0,1.1,0.9,2,2,2h23c1.1,0,2-0.9,2-2v-21L21.5,0.5z" class="st32"/><path d="M27.5,32h-23C3.1,32,2,30.9,2,29.5v-27C2,1.1,3.1,0,4.5,0h17.2L30,8.3v21.2C30,30.9,28.9,32,27.5,32z M4.5,1 C3.7,1,3,1.7,3,2.5v27C3,30.3,3.7,31,4.5,31h23c0.8,0,1.5-0.7,1.5-1.5V8.7L21.3,1H4.5z" class="st33"/></g><g><path d="M21.5,0.5v7c0,0.6,0.4,1,1,1h7L21.5,0.5z" class="st34"/><path d="M29.5,9h-7C21.7,9,21,8.3,21,7.5v-7c0-0.2,0.1-0.4,0.3-0.5c0.2-0.1,0.4,0,0.5,0.1l8,8C30,8.3,30,8.5,30,8.7 C29.9,8.9,29.7,9,29.5,9z M22,1.7v5.8C22,7.8,22.2,8,22.5,8h5.8L22,1.7z" class="st33"/></g><g><path d="M20.1,24.3l-1.3-1.5l5.1-4.2l-5.1-4.2l1.3-1.5l6,5c0.2,0.2,0.4,0.5,0.4,0.8s-0.1,0.6-0.4,0.8L20.1,24.3z" class="st6"/></g><g><path d="M10.8,24.3l-6-5c-0.2-0.2-0.4-0.5-0.4-0.8s0.1-0.6,0.4-0.8l6-5l1.3,1.5L7,18.5l5.1,4.2L10.8,24.3z" class="st6"/></g><g><rect width="16.5" height="2" x="7.3" y="17.5" class="st6" transform="matrix(0.2422 -0.9702 0.9702 0.2422 -6.2032 29.058)"/></g></svg>