<svg xmlns="http://www.w3.org/2000/svg" xmlns:xlink="http://www.w3.org/1999/xlink" id="Layer_1" x="0" y="0" version="1.1" viewBox="0 0 32 32" style="enable-background:new 0 0 32 32" xml:space="preserve"><style type="text/css">.st6{fill:#fff}.st41{fill:#77ccdb}.st42{fill:#4dbcc1}.st43{fill:#b4e3eb}</style><g><path d="M21.5,0.5h-17c-1.1,0-2,0.9-2,2v27c0,1.1,0.9,2,2,2h23c1.1,0,2-0.9,2-2v-21L21.5,0.5z" class="st41"/><path d="M27.5,32h-23C3.1,32,2,30.9,2,29.5v-27C2,1.1,3.1,0,4.5,0h17.2L30,8.3v21.2C30,30.9,28.9,32,27.5,32z M4.5,1 C3.7,1,3,1.7,3,2.5v27C3,30.3,3.7,31,4.5,31h23c0.8,0,1.5-0.7,1.5-1.5V8.7L21.3,1H4.5z" class="st42"/></g><g><path d="M21.5,0.5v7c0,0.6,0.4,1,1,1h7L21.5,0.5z" class="st43"/><path d="M29.5,9h-7C21.7,9,21,8.3,21,7.5v-7c0-0.2,0.1-0.4,0.3-0.5c0.2-0.1,0.4,0,0.5,0.1l8,8C30,8.3,30,8.5,30,8.7 C29.9,8.9,29.7,9,29.5,9z M22,1.7v5.8C22,7.8,22.2,8,22.5,8h5.8L22,1.7z" class="st42"/></g><g><path d="M9.6,14.8l1.2,6h0l1.2-6h2.6v8.6h-1.6v-6.8h0l-1.5,6.8h-1.3l-1.5-6.8h0v6.8H7.1v-8.6H9.6z" class="st6"/><path d="M17.3,21c0,0.2,0,0.4,0,0.5s0.1,0.3,0.2,0.4c0.1,0.1,0.2,0.2,0.4,0.3c0.1,0.1,0.3,0.1,0.6,0.1 c0.3,0,0.5-0.1,0.7-0.3s0.3-0.4,0.3-0.8c0-0.2,0-0.4-0.1-0.5s-0.1-0.3-0.3-0.4c-0.1-0.1-0.3-0.2-0.5-0.3c-0.2-0.1-0.4-0.2-0.7-0.3 c-0.4-0.1-0.7-0.3-1-0.4s-0.5-0.3-0.7-0.5c-0.2-0.2-0.3-0.4-0.4-0.7s-0.1-0.6-0.1-0.9c0-0.8,0.2-1.5,0.7-1.9s1.1-0.6,1.9-0.6 c0.4,0,0.7,0,1.1,0.1c0.3,0.1,0.6,0.2,0.8,0.4c0.2,0.2,0.4,0.4,0.6,0.7c0.1,0.3,0.2,0.6,0.2,1v0.2h-1.7c0-0.4-0.1-0.7-0.2-0.9 c-0.1-0.2-0.4-0.3-0.7-0.3c-0.2,0-0.4,0-0.5,0.1s-0.2,0.1-0.3,0.2c-0.1,0.1-0.1,0.2-0.2,0.3c0,0.1,0,0.2,0,0.4 c0,0.3,0.1,0.5,0.2,0.7c0.1,0.2,0.4,0.3,0.7,0.5l1.3,0.6c0.3,0.1,0.6,0.3,0.8,0.4s0.4,0.3,0.5,0.5s0.2,0.4,0.3,0.6 c0,0.2,0.1,0.5,0.1,0.7c0,0.9-0.3,1.6-0.8,2c-0.5,0.4-1.3,0.6-2.2,0.6c-1,0-1.7-0.2-2.1-0.6c-0.4-0.4-0.6-1-0.6-1.8v-0.3h1.7V21z" class="st6"/><path d="M22.2,14.8H24v8.6h-1.7V14.8z" class="st6"/></g></svg>