<svg xmlns="http://www.w3.org/2000/svg" xmlns:xlink="http://www.w3.org/1999/xlink" id="Layer_1" x="0" y="0" version="1.1" viewBox="0 0 32 32" style="enable-background:new 0 0 32 32" xml:space="preserve"><style type="text/css">.st1{fill:#e87e7e}.st6{fill:#fff}.st13{fill:#f2a2a2}.st14{fill:#f1c5c5}</style><g><path d="M21.5,0.5h-17c-1.1,0-2,0.9-2,2v27c0,1.1,0.9,2,2,2h23c1.1,0,2-0.9,2-2v-21L21.5,0.5z" class="st13"/><path d="M27.5,32h-23C3.1,32,2,30.9,2,29.5v-27C2,1.1,3.1,0,4.5,0h17.2L30,8.3v21.2C30,30.9,28.9,32,27.5,32z M4.5,1 C3.7,1,3,1.7,3,2.5v27C3,30.3,3.7,31,4.5,31h23c0.8,0,1.5-0.7,1.5-1.5V8.7L21.3,1H4.5z" class="st1"/></g><g><path d="M21.5,0.5v7c0,0.6,0.4,1,1,1h7L21.5,0.5z" class="st14"/><path d="M29.5,9h-7C21.7,9,21,8.3,21,7.5v-7c0-0.2,0.1-0.4,0.3-0.5c0.2-0.1,0.4,0,0.5,0.1l8,8C30,8.3,30,8.5,30,8.7 C29.9,8.9,29.7,9,29.5,9z M22,1.7v5.8C22,7.8,22.2,8,22.5,8h5.8L22,1.7z" class="st1"/></g><g><path d="M10.3,14.8c0.4,0,0.8,0.1,1.1,0.2c0.3,0.1,0.5,0.3,0.7,0.6c0.2,0.2,0.3,0.5,0.4,0.8c0.1,0.3,0.1,0.6,0.1,0.9 c0,0.4-0.1,0.8-0.2,1.2c-0.1,0.3-0.3,0.6-0.6,0.8c-0.2,0.2-0.5,0.4-0.9,0.5c-0.3,0.1-0.7,0.2-1.1,0.2H9v3.4H7.3v-8.6H10.3z M9.8,18.7c0.3,0,0.6-0.1,0.8-0.3s0.3-0.5,0.3-1c0-0.4-0.1-0.8-0.3-1c-0.2-0.2-0.5-0.3-0.9-0.3H9v2.6H9.8z" class="st6"/><path d="M16.4,14.8c0.6,0,1.1,0.1,1.5,0.3c0.4,0.2,0.7,0.5,0.9,0.8c0.2,0.4,0.3,0.8,0.4,1.3c0.1,0.5,0.1,1.1,0.1,1.7 c0,0.8,0,1.4-0.1,2s-0.2,1-0.5,1.4c-0.2,0.4-0.5,0.6-0.9,0.8c-0.4,0.2-0.9,0.3-1.4,0.3h-2.7v-8.6H16.4z M16.1,22.1 c0.3,0,0.5-0.1,0.7-0.2c0.2-0.1,0.3-0.3,0.4-0.5c0.1-0.2,0.2-0.6,0.2-0.9c0-0.4,0.1-0.9,0.1-1.5c0-0.5,0-0.9,0-1.3 c0-0.4-0.1-0.7-0.2-0.9c-0.1-0.2-0.2-0.4-0.4-0.6s-0.5-0.2-0.8-0.2h-0.7v6H16.1z" class="st6"/><path d="M25.2,14.8v1.4h-3.1v2H25v1.4h-2.9v3.7h-1.7v-8.6H25.2z" class="st6"/></g></svg>