<svg xmlns="http://www.w3.org/2000/svg" xmlns:xlink="http://www.w3.org/1999/xlink" id="Layer_1" x="0" y="0" version="1.1" viewBox="0 0 32 32" style="enable-background:new 0 0 32 32" xml:space="preserve"><style type="text/css">.st6{fill:#fff}.st10{fill:#feb17d}.st11{fill:#dd9666}.st12{fill:#fed4b7}</style><g><g><path d="M21.5,0.5h-17c-1.1,0-2,0.9-2,2v27c0,1.1,0.9,2,2,2h23c1.1,0,2-0.9,2-2v-21L21.5,0.5z" class="st10"/><path d="M27.5,32h-23C3.1,32,2,30.9,2,29.5v-27C2,1.1,3.1,0,4.5,0h17.2L30,8.3v21.2C30,30.9,28.9,32,27.5,32z M4.5,1 C3.7,1,3,1.7,3,2.5v27C3,30.3,3.7,31,4.5,31h23c0.8,0,1.5-0.7,1.5-1.5V8.7L21.3,1H4.5z" class="st11"/></g><g><path d="M21.5,0.5v7c0,0.6,0.4,1,1,1h7L21.5,0.5z" class="st12"/><path d="M29.5,9h-7C21.7,9,21,8.3,21,7.5v-7c0-0.2,0.1-0.4,0.3-0.5c0.2-0.1,0.4,0,0.5,0.1l8,8C30,8.3,30,8.5,30,8.7 C29.9,8.9,29.7,9,29.5,9z M22,1.7v5.8C22,7.8,22.2,8,22.5,8h5.8L22,1.7z" class="st11"/></g><g><rect width="17" height="2" x="8" y="25" class="st6"/></g><g><g><path d="M22,16.1h-5.1V11H17C19.8,11,22,13.2,22,16.1L22,16.1z" class="st6"/></g><g><path d="M16.9,18.1h-2v-2v-3.8c-2.5,0.5-4.4,3-3.8,5.9c0.4,1.8,1.9,3.3,3.7,3.7c2.8,0.6,5.3-1.2,5.9-3.8H16.9z" class="st6"/></g></g></g></svg>