<svg xmlns="http://www.w3.org/2000/svg" xmlns:xlink="http://www.w3.org/1999/xlink" id="Layer_1" x="0" y="0" version="1.1" viewBox="0 0 32 32" style="enable-background:new 0 0 32 32" xml:space="preserve"><style type="text/css">.st6{fill:#fff}.st23{fill:#e6a6e8}.st24{fill:#d68ad6}.st25{fill:#ffccfe}</style><g><path d="M21.5,0.5h-17c-1.1,0-2,0.9-2,2v27c0,1.1,0.9,2,2,2h23c1.1,0,2-0.9,2-2v-21L21.5,0.5z" class="st23"/><path d="M27.5,32h-23C3.1,32,2,30.9,2,29.5v-27C2,1.1,3.1,0,4.5,0h17.2L30,8.3v21.2C30,30.9,28.9,32,27.5,32z M4.5,1 C3.7,1,3,1.7,3,2.5v27C3,30.3,3.7,31,4.5,31h23c0.8,0,1.5-0.7,1.5-1.5V8.7L21.3,1H4.5z" class="st24"/></g><g><path d="M21.5,0.5v7c0,0.6,0.4,1,1,1h7L21.5,0.5z" class="st25"/><path d="M29.5,9h-7C21.7,9,21,8.3,21,7.5v-7c0-0.2,0.1-0.4,0.3-0.5s0.4,0,0.5,0.1l8,8C30,8.3,30,8.5,30,8.7 C29.9,8.9,29.7,9,29.5,9z M22,1.7v5.8C22,7.8,22.2,8,22.5,8h5.8L22,1.7z" class="st24"/></g><g><path d="M9.8,14.8c0.7,0,1.3,0.2,1.7,0.5c0.4,0.4,0.6,0.9,0.6,1.7c0,0.6-0.1,1-0.3,1.4c-0.2,0.4-0.6,0.6-1.1,0.7v0 c0.4,0.1,0.7,0.2,0.9,0.4c0.2,0.2,0.3,0.6,0.4,1c0,0.2,0,0.3,0,0.5s0,0.4,0,0.6c0,0.5,0,0.8,0.1,1c0,0.2,0.2,0.4,0.3,0.5v0.1h-1.9 c-0.1-0.1-0.1-0.3-0.2-0.4c0-0.2,0-0.3,0-0.5l0-1.6c0-0.3-0.1-0.6-0.3-0.8c-0.2-0.2-0.4-0.3-0.8-0.3H8.3v3.6H6.6v-8.6H9.8z M9,18.6 c0.4,0,0.7-0.1,1-0.3c0.2-0.2,0.3-0.5,0.3-1c0-0.8-0.4-1.2-1.2-1.2H8.3v2.5H9z" class="st6"/><path d="M17.1,14.8l2.3,8.6h-1.8l-0.4-1.8h-2.3l-0.4,1.8h-1.8l2.3-8.6H17.1z M16.8,20.1L16,16.3h0l-0.8,3.9H16.8z" class="st6"/><path d="M23.1,14.8c0.7,0,1.3,0.2,1.7,0.5c0.4,0.4,0.6,0.9,0.6,1.7c0,0.6-0.1,1-0.3,1.4c-0.2,0.4-0.6,0.6-1.1,0.7v0 c0.4,0.1,0.7,0.2,0.9,0.4c0.2,0.2,0.3,0.6,0.4,1c0,0.2,0,0.3,0,0.5s0,0.4,0,0.6c0,0.5,0,0.8,0.1,1c0,0.2,0.2,0.4,0.3,0.5v0.1h-1.9 c-0.1-0.1-0.1-0.3-0.2-0.4c0-0.2,0-0.3,0-0.5l0-1.6c0-0.3-0.1-0.6-0.3-0.8c-0.2-0.2-0.4-0.3-0.8-0.3h-0.9v3.6h-1.7v-8.6H23.1z M22.4,18.6c0.4,0,0.7-0.1,1-0.3c0.2-0.2,0.3-0.5,0.3-1c0-0.8-0.4-1.2-1.2-1.2h-0.8v2.5H22.4z" class="st6"/></g></svg>