<svg xmlns="http://www.w3.org/2000/svg" xmlns:xlink="http://www.w3.org/1999/xlink" id="Layer_1" x="0" y="0" version="1.1" viewBox="0 0 32 32" style="enable-background:new 0 0 32 32" xml:space="preserve"><style type="text/css">.st3{fill:#91d4fe}.st4{fill:#63a7d3}.st5{fill:#c1e7ff}.st6{fill:#fff}</style><g><g><path d="M21.5,0.5h-17c-1.1,0-2,0.9-2,2v27c0,1.1,0.9,2,2,2h23c1.1,0,2-0.9,2-2v-21L21.5,0.5z" class="st3"/><path d="M27.5,32h-23C3.1,32,2,30.9,2,29.5v-27C2,1.1,3.1,0,4.5,0h17.2L30,8.3v21.2C30,30.9,28.9,32,27.5,32z M4.5,1 C3.7,1,3,1.7,3,2.5v27C3,30.3,3.7,31,4.5,31h23c0.8,0,1.5-0.7,1.5-1.5V8.7L21.3,1H4.5z" class="st4"/></g><g><path d="M21.5,0.5v6c0,1.1,0.9,2,2,2h6L21.5,0.5z" class="st5"/><path d="M29.5,9h-6C22.1,9,21,7.9,21,6.5v-6c0-0.2,0.1-0.4,0.3-0.5c0.2-0.1,0.4,0,0.5,0.1l8,8C30,8.3,30,8.5,30,8.7 C29.9,8.9,29.7,9,29.5,9z M22,1.7v4.8C22,7.3,22.7,8,23.5,8h4.8L22,1.7z" class="st4"/></g><g><rect width="18" height="2" x="7" y="23" class="st6"/></g><g><rect width="18" height="2" x="7" y="17" class="st6"/></g><g><rect width="11" height="2" x="7" y="11" class="st6"/></g></g></svg>