<svg xmlns="http://www.w3.org/2000/svg" xmlns:xlink="http://www.w3.org/1999/xlink" width="64" height="42" version="1.1" viewBox="0 0 64 42"><title>Artboard 7 Copy 8</title><desc>Created with Sketch.</desc><g id="Artboard-7-Copy-8" fill="none" fill-rule="evenodd" stroke="none" stroke-width="1"><g id="angular-icon" fill-rule="nonzero" transform="translate(17.000000, 5.000000)"><polygon id="Shape" fill="#B3B3B3" points="15.357 0 0 5.287 2.427 24.971 15.373 31.932 28.386 24.876 30.811 5.194"/><polygon id="Shape" fill="#A6120D" points="28.886 6.467 15.406 1.878 15.406 30.054 26.703 23.812 28.886 6.467"/><polygon id="Shape" fill="#DD1B16" points="1.926 6.55 3.987 23.896 15.406 30.054 15.406 1.878 1.926 6.55"/><path id="Shape" fill="#F2F2F2" d="M19.2571433,16.9996723 L15.373476,18.7574043 L11.2801785,18.7574043 L9.3560385,23.4154177 L5.77714299,23.4794128 L15.373476,2.81752954 L19.2571433,16.9997909 L19.2571433,16.9996723 Z M18.8817193,16.1147624 L15.3993124,9.44232556 L12.5427347,15.9999267 L15.3733535,15.9999267 L18.8817193,16.1148809 L18.8817193,16.1147624 Z"/><polygon id="Shape" fill="#B3B3B3" points="15.406 2.818 15.43 9.423 18.539 15.966 15.413 15.966 15.406 18.705 19.729 18.71 21.75 23.418 25.034 23.479 15.406 2.818"/></g></g></svg>