<svg xmlns="http://www.w3.org/2000/svg" xmlns:xlink="http://www.w3.org/1999/xlink" id="Layer_1" width="24" height="24" x="0" y="0" fill="#DADADA" version="1.1" viewBox="0 0 24 24" style="enable-background:new 0 0 24 24" xml:space="preserve"><style type="text/css">.st17{opacity:.6}</style><g class="st17"><path d="M12.7,12.6c-0.1-0.2-0.2-0.4-0.4-0.6l-2.1-1.8l2.6-2.1c0.3-0.2,0.5-0.5,0.6-0.8l5.1,4.1c0.4,0.4,1.1,0.3,1.4-0.2 s0.3-1.1-0.2-1.4l-6.3-5c-0.2-0.2-0.4-0.2-0.7-0.2l0,0c0,0-4,0.3-6.4,3.2c-2.3,2.7,3.6,5.3,4.5,5.7l1,5.6c0.1,0.5,0.5,0.8,1,0.8 c0.1,0,0.1,0,0.2,0c0.5-0.1,0.9-0.6,0.8-1.2L12.7,12.6z M17,6c1.2,0,2.1-1,2.1-2.1s-1-2.1-2.1-2.1s-2.1,1-2.1,2.1S15.8,6,17,6z M4.7,12.9C2.1,12.9,0,15,0,17.6s2.1,4.7,4.7,4.7s4.7-2.1,4.7-4.7C9.3,15,7.2,12.9,4.7,12.9z M4.7,20.3c-1.5,0-2.6-1.2-2.6-2.6 S3.2,15,4.7,15s2.6,1.2,2.6,2.6C7.3,19.1,6.1,20.3,4.7,20.3z M19.3,12.9c-2.6,0-4.7,2.1-4.7,4.7s2.1,4.7,4.7,4.7s4.7-2.1,4.7-4.7 C24,15,21.9,12.9,19.3,12.9z M19.3,20.3c-1.5,0-2.6-1.2-2.6-2.6s1.2-2.6,2.6-2.6c1.5,0,2.6,1.2,2.6,2.6 C22,19.1,20.8,20.3,19.3,20.3z"/></g></svg>