<svg xmlns="http://www.w3.org/2000/svg" xmlns:xlink="http://www.w3.org/1999/xlink" id="Layer_1" width="24" height="24" x="0" y="0" version="1.1" viewBox="0 0 24 24" style="enable-background:new 0 0 24 24" xml:space="preserve"><style type="text/css">.st32{fill:#4d4d4d}</style><path d="M12,0C5.4,0,0,5.4,0,12s5.4,12,12,12s12-5.4,12-12S18.6,0,12,0z M12,23.1c-6.1,0-11.1-5-11.1-11.1	C0.9,6.5,5,1.9,10.3,1.1L8.7,11.1L8.6,11c0-0.1-0.1-0.1-0.2-0.2c-0.2-0.1-0.5,0-0.6,0.2l-0.7,1.4l-6,0.4l6.3,0.5	c0.2,0,0.3-0.1,0.4-0.2l0,0l0.4-0.8l0.3,0.6c0.1,0.1,0.2,0.2,0.3,0.2c0.3,0,0.5-0.1,0.5-0.4l1.2-7.7l1.2,16.7c0,0.2,0.2,0.4,0.4,0.4	c0.3,0,0.5-0.1,0.5-0.4l1.3-9.4l0.7,0.7l0,0C14.9,13,15,13,15.1,13l6.8-0.5l-6.6-0.4l-1.2-1.2c-0.1-0.1-0.2-0.1-0.3-0.1	c-0.3,0-0.5,0.1-0.5,0.4l-0.8,6L11.3,1c0.2,0,0.5,0,0.7,0c6.1,0,11.1,5,11.1,11.1S18.1,23.1,12,23.1z" class="st32"/></svg>