<svg xmlns="http://www.w3.org/2000/svg" xmlns:xlink="http://www.w3.org/1999/xlink" id="Layer_1" width="24" height="24" x="0" y="0" version="1.1" viewBox="0 0 24 24" style="enable-background:new 0 0 24 24" xml:space="preserve"><style type="text/css">.st17{opacity:.6}</style><g class="st17"><path d="M10.2,21.2c-0.3,0.1-0.6,0.1-0.9,0.1c-1,0-1.8-0.5-2-1.3c0,0-0.2-0.7-0.2-0.8l-3,3.7c-0.5,0.7-1.3,1-2,1 c-0.4,0-0.8-0.1-1.1-0.4l-0.4-0.3C0.2,23,0,22.4,0,21.8c0-0.6,0.2-1.2,0.6-1.7L12.1,5.7l-1-0.8L8.9,7.7c-0.5,0.6-1.2,1-1.8,1 c-0.4,0-0.7-0.1-1-0.3L5.8,8.1C5.4,7.7,4.5,6.9,5.7,5.1l3.4-4.2C9.5,0.3,10.2,0,10.9,0c0.4,0,0.8,0.1,1.1,0.4l3.8,3 c-0.1-0.7,0.1-1.5,0.6-2.1l0,0c0.6-0.7,1.4-1.1,2.3-1.1c0.7,0,1.3,0.2,1.8,0.6c1.3,1,1.5,2.8,0.5,4.1C20.3,5.6,19.5,6,18.6,6 c-0.2,0-0.5,0-0.7-0.1c0,0.1,0.4,3.9,0.4,3.9l3.5-0.4c1.4-0.1,2.3,0.6,2.4,1.5l0,0.4c0.1,0.5-0.1,1-0.6,1.4 c-0.4,0.4-0.9,0.6-1.5,0.7l-5.3,0.6c-0.4,0-0.9,0-1.2-0.2l1.4,1.2c0.5,0.4,1.2,1.2,1.1,2.7c-0.1,1.2-1.3,1.4-1.9,1.6 M10.2,15.3 L9,16.8l2.3-0.7L10.2,15.3z M13.7,12.3l1,0.8c-0.1-0.2-0.4-1.6-0.4-1.6L13.7,12.3z M3.9,5.6H0.1c-0.2,0-0.3-0.2-0.3-0.3 s0.2-0.3,0.3-0.3h3.9c0.2,0,0.3,0.2,0.3,0.3S4.1,5.6,3.9,5.6z M5.7,3.1H0.1c-0.2,0-0.3-0.2-0.3-0.3s0.2-0.3,0.3-0.3h5.7 c0.2,0,0.3,0.2,0.3,0.3S5.9,3.1,5.7,3.1z M7.9,0.7H0.1c-0.2,0-0.3-0.2-0.3-0.3S-0.1,0,0.1,0h7.8c0.2,0,0.3,0.2,0.3,0.3 S8.1,0.7,7.9,0.7z"/></g></svg>