<svg xmlns="http://www.w3.org/2000/svg" xmlns:xlink="http://www.w3.org/1999/xlink" id="Layer_1" width="24" height="24" x="0" y="0" fill="#DADADA" version="1.1" viewBox="0 0 24 24" style="enable-background:new 0 0 24 24" xml:space="preserve"><style type="text/css">.st17{opacity:.6}</style><g class="st17"><circle cx="12.9" cy="2" r="2"/><path d="M20,11.6c0,0.6-0.5,1-1,1c-0.1,0-0.1,0-0.2,0l0,0c0,0-3.4-0.7-3.7-0.7c-0.3-0.1-0.5-0.4-0.6-0.6c-0.1-0.2-0.9-1.8-0.9-1.8 l-0.6,3c0,0,2.8,3,2.9,3.1c0.1,0.1,0.4,0.3,0.4,1.3c0,0.9,0,5,0,5.8c0,0,0,0,0,0s0,0,0,0v0.4h0c-0.1,0.3-0.6,0.7-1.2,0.7 c-0.6,0-1.1-0.5-1.2-0.7h0.3v-5.7l-3.4-3c0,0-0.5,3.2-0.6,3.4c0,0.2-0.1,0.4-0.4,0.8c-0.3,0.3-3.3,3.8-3.8,4.5 c-0.2,0.3-0.6,0.5-1,0.5c-0.7,0-1.2-0.5-1.2-1.2c0-0.3,0.1-0.6,0.4-0.9l3.2-3.9l0.9-5.2c0,0,0.9-4.4,1-4.6l-1,0.6l-1.6,3 c-0.1,0.5-0.5,0.8-1,0.8c-0.6,0-1-0.5-1-1c0-0.2,0.1-0.5,0.2-0.6l1.7-3.2c0,0,0.2-0.4,0.4-0.5c0.2-0.1,3.9-2.2,3.9-2.2 s0.7-0.4,1.5-0.1c0.7,0.2,1.2,0.8,1.4,1c0.2,0.2,2.1,4.3,2.2,4.4c0,0.1-0.1,0,0,0.1c0.1,0,2.3,0.4,2.9,0.5C19.6,10.6,20,11,20,11.6 z"/></g></svg>